<svg xmlns="http://www.w3.org/2000/svg" version="1.1" xmlns:xlink="http://www.w3.org/1999/xlink" xmlns:svgjs="http://svgjs.dev/svgjs" width="1440" height="560" preserveAspectRatio="none" viewBox="0 0 1440 560"><g mask="url(&quot;#SvgjsMask1194&quot;)" fill="none"><rect width="1440" height="560" x="0" y="0" fill="rgba(255, 255, 255, 1)"></rect><use xlink:href="#SvgjsG1203" transform="translate(0, 0)" fill="rgba(232, 232, 232, 1)"></use><use xlink:href="#SvgjsG1203" transform="translate(0, 480)" fill="rgba(232, 232, 232, 1)"></use><use xlink:href="#SvgjsG1203" transform="translate(480, 0)" fill="rgba(232, 232, 232, 1)"></use><use xlink:href="#SvgjsG1203" transform="translate(480, 480)" fill="rgba(232, 232, 232, 1)"></use><use xlink:href="#SvgjsG1203" transform="translate(960, 0)" fill="rgba(232, 232, 232, 1)"></use><use xlink:href="#SvgjsG1203" transform="translate(960, 480)" fill="rgba(232, 232, 232, 1)"></use></g><defs><mask id="SvgjsMask1194"><rect width="1440" height="560" fill="#ffffff"></rect></mask><g id="SvgjsG1195"><path d="M3.755 2.315h2.494v11.128h-2.494zM13.507 0.537H16v11.261h-2.493z"></path><path d="M4.451 5.556l-0.696-3.24L16 0v3.167z"></path><path d="M0 13.443a3.124 2.606 0 1 0 6.249 0 3.124 2.606 0 1 0-6.249 0"></path><path d="M9.751 11.798a3.124 2.606 0 1 0 6.249 0 3.124 2.606 0 1 0-6.249 0"></path></g><g id="SvgjsG1197"><path d="M3.044 12.188V8.93c0-2.836 2.475-5.244 5.463-5.245 3.022-0.004 5.465 2.352 5.465 5.245v3.258h1.351V8.93C15.332 5.276 12.27 2.325 8.51 2.325 4.777 2.325 1.689 5.333 1.689 8.93v3.258h1.355z"></path><path d="M5.463 14.702l-1.781 0.006V9.593h1.785c0.921 2.372 0 5.111 0 5.111m6.049-5.109H13.298V14.702l-1.783 0.006c-0.921-2.373 0-5.113 0-5.113"></path></g><g id="SvgjsG1199"><path d="M11.675 13.031H3.563V2.436h8.112v10.595z m-4.054 1.54a0.457 0.457 0 1 1 0-0.912 0.457 0.457 0 0 1 0 0.912zM6.921 1.287h1.395c0.196 0 0.196 0.356 0 0.356h-1.397c-0.199 0-0.199-0.356 0-0.356zM11.495 0.409H3.744C3.413 0.409 3.143 0.761 3.143 1.191V14.276c0 0.427 0.267 0.779 0.601 0.778h7.751c0.332 0 0.604-0.35 0.605-0.778V1.191c0-0.432-0.272-0.782-0.605-0.782z" fill-rule="evenodd"></path></g><g id="SvgjsG1198"><path d="M15.769 13.134v-0.004s-3.022-3.019-3.024-3.02a0.605 0.605 0 0 0-0.858 0.002L10.496 11.509c-0.541 0.541-1.238 0.061-2.577-1.031-0.886-0.722-1.905-1.693-2.788-2.788-0.62-0.768-1.168-1.575-0.602-2.141 0.001-0.001 1.397-1.393 1.398-1.395l0.001-0.003c0.251-0.25 0.226-0.634-0.003-0.862v-0.004L2.813 0.177c-0.24-0.239-0.623-0.234-0.858 0.002L0.553 1.58C-0.024 2.303-1.307 5.747 4.194 11.385c5.795 5.94 9.534 4.669 10.177 3.999 0 0 1.4-1.383 1.4-1.384l0.001-0.003c0.251-0.251 0.225-0.635-0.002-0.864z"></path></g><g id="SvgjsG1202"><path d="M12.856 11.744c1.338 0 2.427-1.084 2.426-2.424 0-1.343-1.088-2.429-2.426-2.429-1.345 0-2.429 1.086-2.429 2.429 0 1.34 1.084 2.424 2.429 2.424m-9.684 0c1.338 0 2.429-1.084 2.429-2.424 0-1.343-1.09-2.429-2.429-2.429-1.342 0-2.429 1.086-2.428 2.429 0 1.34 1.086 2.424 2.428 2.424M9.832 6.912H6.203v2.42H9.832V6.912zM12.231 4.345h-8.397v1.567h8.397V4.346z m0.969 1.565H16v6.602H0v-6.602h2.866l0.005-1.422c0-0.534 0.429-0.968 0.963-0.968H12.229c0.53 0 0.963 0.433 0.963 0.968l0.009 1.422z"></path></g><g id="SvgjsG1201"><path d="M6.846 8.046l0.633 0.934h1.178l0.544-0.934-0.573-0.995h-1.181l-0.601 0.995zM7.331 15.562V13.449l-1.181 0.664-0.601-0.345V13.024l1.751-0.995V10.64l-1.271 0.816v-1.471l-1.214 0.7v1.994l-0.664 0.412-0.561-0.372V11.382L1.747 12.422 0.96 12.091V11.248l1.934-1.058-1.21-0.608v-0.771l0.687-0.376 1.735 1.022 1.206-0.696-0.03-0.022-1.232-0.707 1.197-0.742-1.201-0.696L2.311 7.614l-0.651-0.324v-0.769l1.174-0.66L0.96 4.844v-0.844l0.72-0.371 1.847 1.067v-1.36l0.557-0.375 0.682 0.393-0.004 2.035 1.241 0.709-0.005-1.438 1.301 0.7v-1.388L5.549 2.974v-0.738l0.601-0.348 1.181 0.664V0.443L8.006 0l0.682 0.443v2.109l1.224-0.678 0.615 0.407v0.664L8.715 3.972v1.388l1.239-0.755v1.511l1.277-0.696v-2.176l0.615-0.286 0.646 0.286v1.392l1.901-1.027 0.664 0.405v0.787l-1.856 1.055 1.161 0.651v0.751L13.76 7.592l-1.782-1.053-1.232 0.782 1.192 0.743-1.228 0.706 1.268 0.664L13.76 8.439l0.572 0.405v0.718L13.214 10.19l1.781 1.058v0.83l-0.754 0.344-1.749-0.995v1.317l-0.628 0.351-0.615-0.351V10.745l-1.295-0.737v1.388L8.715 10.64v1.389L10.466 13.024v0.787l-0.605 0.302-1.173-0.664v2.113L8.006 16l-0.675-0.438z"></path></g><g id="SvgjsG1200"><path d="M3.5 4.5h3.938v7H3.5V4.5z" fill-rule="evenodd"></path><path d="M11.322 15.907L6.508 11.5v-6.889L11.322 0.094 12.426 8 11.322 15.907z" fill-rule="evenodd"></path><path d="M11.322 0.094S12.425 4.064 12.425 8s-1.104 7.906-1.104 7.906L11.322 0.094z" fill-rule="evenodd"></path></g><g id="SvgjsG1196"><path d="M15.981 12.616l-7.963-4.598L15.981 3.421v9.195 0zM8 12.615L0.037 8.018 8 3.42v9.196V12.615z" fill-rule="evenodd"></path></g><g id="SvgjsG1203"><use xlink:href="#SvgjsG1195" transform="translate(0, 0) scale(2)" fill="rgba(232, 232, 232, 1)"></use><use xlink:href="#SvgjsG1196" transform="translate(0, 48) scale(2)" fill="rgba(232, 232, 232, 1)"></use><use xlink:href="#SvgjsG1197" transform="translate(0, 96) scale(2)" fill="rgba(232, 232, 232, 1)"></use><use xlink:href="#SvgjsG1195" transform="translate(0, 144) scale(2)" fill="rgba(232, 232, 232, 1)"></use><use xlink:href="#SvgjsG1198" transform="translate(0, 192) scale(2)" fill="rgba(232, 232, 232, 1)"></use><use xlink:href="#SvgjsG1199" transform="translate(0, 240) scale(2)" fill="rgba(232, 232, 232, 1)"></use><use xlink:href="#SvgjsG1200" transform="translate(0, 288) scale(2)" fill="rgba(232, 232, 232, 1)"></use><use xlink:href="#SvgjsG1198" transform="translate(0, 336) scale(2)" fill="rgba(232, 232, 232, 1)"></use><use xlink:href="#SvgjsG1197" transform="translate(0, 384) scale(2)" fill="rgba(232, 232, 232, 1)"></use><use xlink:href="#SvgjsG1201" transform="translate(0, 432) scale(2)" fill="rgba(232, 232, 232, 1)"></use><use xlink:href="#SvgjsG1200" transform="translate(48, 0) scale(2)" fill="rgba(232, 232, 232, 1)"></use><use xlink:href="#SvgjsG1195" transform="translate(48, 48) scale(2)" fill="rgba(232, 232, 232, 1)"></use><use xlink:href="#SvgjsG1195" transform="translate(48, 96) scale(2)" fill="rgba(232, 232, 232, 1)"></use><use xlink:href="#SvgjsG1201" transform="translate(48, 144) scale(2)" fill="rgba(232, 232, 232, 1)"></use><use xlink:href="#SvgjsG1198" transform="translate(48, 192) scale(2)" fill="rgba(232, 232, 232, 1)"></use><use xlink:href="#SvgjsG1200" transform="translate(48, 240) scale(2)" fill="rgba(232, 232, 232, 1)"></use><use xlink:href="#SvgjsG1199" transform="translate(48, 288) scale(2)" fill="rgba(232, 232, 232, 1)"></use><use xlink:href="#SvgjsG1197" transform="translate(48, 336) scale(2)" fill="rgba(232, 232, 232, 1)"></use><use xlink:href="#SvgjsG1197" transform="translate(48, 384) scale(2)" fill="rgba(232, 232, 232, 1)"></use><use xlink:href="#SvgjsG1202" transform="translate(48, 432) scale(2)" fill="rgba(232, 232, 232, 1)"></use><use xlink:href="#SvgjsG1195" transform="translate(96, 0) scale(2)" fill="rgba(232, 232, 232, 1)"></use><use xlink:href="#SvgjsG1195" transform="translate(96, 48) scale(2)" fill="rgba(232, 232, 232, 1)"></use><use xlink:href="#SvgjsG1197" transform="translate(96, 96) scale(2)" fill="rgba(232, 232, 232, 1)"></use><use xlink:href="#SvgjsG1200" transform="translate(96, 144) scale(2)" fill="rgba(232, 232, 232, 1)"></use><use xlink:href="#SvgjsG1198" transform="translate(96, 192) scale(2)" fill="rgba(232, 232, 232, 1)"></use><use xlink:href="#SvgjsG1198" transform="translate(96, 240) scale(2)" fill="rgba(232, 232, 232, 1)"></use><use xlink:href="#SvgjsG1198" transform="translate(96, 288) scale(2)" fill="rgba(232, 232, 232, 1)"></use><use xlink:href="#SvgjsG1195" transform="translate(96, 336) scale(2)" fill="rgba(232, 232, 232, 1)"></use><use xlink:href="#SvgjsG1202" transform="translate(96, 384) scale(2)" fill="rgba(232, 232, 232, 1)"></use><use xlink:href="#SvgjsG1197" transform="translate(96, 432) scale(2)" fill="rgba(232, 232, 232, 1)"></use><use xlink:href="#SvgjsG1200" transform="translate(144, 0) scale(2)" fill="rgba(232, 232, 232, 1)"></use><use xlink:href="#SvgjsG1196" transform="translate(144, 48) scale(2)" fill="rgba(232, 232, 232, 1)"></use><use xlink:href="#SvgjsG1201" transform="translate(144, 96) scale(2)" fill="rgba(232, 232, 232, 1)"></use><use xlink:href="#SvgjsG1196" transform="translate(144, 144) scale(2)" fill="rgba(232, 232, 232, 1)"></use><use xlink:href="#SvgjsG1197" transform="translate(144, 192) scale(2)" fill="rgba(232, 232, 232, 1)"></use><use xlink:href="#SvgjsG1197" transform="translate(144, 240) scale(2)" fill="rgba(232, 232, 232, 1)"></use><use xlink:href="#SvgjsG1200" transform="translate(144, 288) scale(2)" fill="rgba(232, 232, 232, 1)"></use><use xlink:href="#SvgjsG1195" transform="translate(144, 336) scale(2)" fill="rgba(232, 232, 232, 1)"></use><use xlink:href="#SvgjsG1201" transform="translate(144, 384) scale(2)" fill="rgba(232, 232, 232, 1)"></use><use xlink:href="#SvgjsG1198" transform="translate(144, 432) scale(2)" fill="rgba(232, 232, 232, 1)"></use><use xlink:href="#SvgjsG1198" transform="translate(192, 0) scale(2)" fill="rgba(232, 232, 232, 1)"></use><use xlink:href="#SvgjsG1197" transform="translate(192, 48) scale(2)" fill="rgba(232, 232, 232, 1)"></use><use xlink:href="#SvgjsG1198" transform="translate(192, 96) scale(2)" fill="rgba(232, 232, 232, 1)"></use><use xlink:href="#SvgjsG1200" transform="translate(192, 144) scale(2)" fill="rgba(232, 232, 232, 1)"></use><use xlink:href="#SvgjsG1196" transform="translate(192, 192) scale(2)" fill="rgba(232, 232, 232, 1)"></use><use xlink:href="#SvgjsG1195" transform="translate(192, 240) scale(2)" fill="rgba(232, 232, 232, 1)"></use><use xlink:href="#SvgjsG1202" transform="translate(192, 288) scale(2)" fill="rgba(232, 232, 232, 1)"></use><use xlink:href="#SvgjsG1201" transform="translate(192, 336) scale(2)" fill="rgba(232, 232, 232, 1)"></use><use xlink:href="#SvgjsG1197" transform="translate(192, 384) scale(2)" fill="rgba(232, 232, 232, 1)"></use><use xlink:href="#SvgjsG1198" transform="translate(192, 432) scale(2)" fill="rgba(232, 232, 232, 1)"></use><use xlink:href="#SvgjsG1195" transform="translate(240, 0) scale(2)" fill="rgba(232, 232, 232, 1)"></use><use xlink:href="#SvgjsG1199" transform="translate(240, 48) scale(2)" fill="rgba(232, 232, 232, 1)"></use><use xlink:href="#SvgjsG1195" transform="translate(240, 96) scale(2)" fill="rgba(232, 232, 232, 1)"></use><use xlink:href="#SvgjsG1201" transform="translate(240, 144) scale(2)" fill="rgba(232, 232, 232, 1)"></use><use xlink:href="#SvgjsG1198" transform="translate(240, 192) scale(2)" fill="rgba(232, 232, 232, 1)"></use><use xlink:href="#SvgjsG1195" transform="translate(240, 240) scale(2)" fill="rgba(232, 232, 232, 1)"></use><use xlink:href="#SvgjsG1202" transform="translate(240, 288) scale(2)" fill="rgba(232, 232, 232, 1)"></use><use xlink:href="#SvgjsG1202" transform="translate(240, 336) scale(2)" fill="rgba(232, 232, 232, 1)"></use><use xlink:href="#SvgjsG1197" transform="translate(240, 384) scale(2)" fill="rgba(232, 232, 232, 1)"></use><use xlink:href="#SvgjsG1202" transform="translate(240, 432) scale(2)" fill="rgba(232, 232, 232, 1)"></use><use xlink:href="#SvgjsG1195" transform="translate(288, 0) scale(2)" fill="rgba(232, 232, 232, 1)"></use><use xlink:href="#SvgjsG1197" transform="translate(288, 48) scale(2)" fill="rgba(232, 232, 232, 1)"></use><use xlink:href="#SvgjsG1201" transform="translate(288, 96) scale(2)" fill="rgba(232, 232, 232, 1)"></use><use xlink:href="#SvgjsG1195" transform="translate(288, 144) scale(2)" fill="rgba(232, 232, 232, 1)"></use><use xlink:href="#SvgjsG1198" transform="translate(288, 192) scale(2)" fill="rgba(232, 232, 232, 1)"></use><use xlink:href="#SvgjsG1197" transform="translate(288, 240) scale(2)" fill="rgba(232, 232, 232, 1)"></use><use xlink:href="#SvgjsG1200" transform="translate(288, 288) scale(2)" fill="rgba(232, 232, 232, 1)"></use><use xlink:href="#SvgjsG1202" transform="translate(288, 336) scale(2)" fill="rgba(232, 232, 232, 1)"></use><use xlink:href="#SvgjsG1198" transform="translate(288, 384) scale(2)" fill="rgba(232, 232, 232, 1)"></use><use xlink:href="#SvgjsG1198" transform="translate(288, 432) scale(2)" fill="rgba(232, 232, 232, 1)"></use><use xlink:href="#SvgjsG1195" transform="translate(336, 0) scale(2)" fill="rgba(232, 232, 232, 1)"></use><use xlink:href="#SvgjsG1201" transform="translate(336, 48) scale(2)" fill="rgba(232, 232, 232, 1)"></use><use xlink:href="#SvgjsG1201" transform="translate(336, 96) scale(2)" fill="rgba(232, 232, 232, 1)"></use><use xlink:href="#SvgjsG1195" transform="translate(336, 144) scale(2)" fill="rgba(232, 232, 232, 1)"></use><use xlink:href="#SvgjsG1198" transform="translate(336, 192) scale(2)" fill="rgba(232, 232, 232, 1)"></use><use xlink:href="#SvgjsG1197" transform="translate(336, 240) scale(2)" fill="rgba(232, 232, 232, 1)"></use><use xlink:href="#SvgjsG1199" transform="translate(336, 288) scale(2)" fill="rgba(232, 232, 232, 1)"></use><use xlink:href="#SvgjsG1200" transform="translate(336, 336) scale(2)" fill="rgba(232, 232, 232, 1)"></use><use xlink:href="#SvgjsG1195" transform="translate(336, 384) scale(2)" fill="rgba(232, 232, 232, 1)"></use><use xlink:href="#SvgjsG1198" transform="translate(336, 432) scale(2)" fill="rgba(232, 232, 232, 1)"></use><use xlink:href="#SvgjsG1199" transform="translate(384, 0) scale(2)" fill="rgba(232, 232, 232, 1)"></use><use xlink:href="#SvgjsG1202" transform="translate(384, 48) scale(2)" fill="rgba(232, 232, 232, 1)"></use><use xlink:href="#SvgjsG1198" transform="translate(384, 96) scale(2)" fill="rgba(232, 232, 232, 1)"></use><use xlink:href="#SvgjsG1200" transform="translate(384, 144) scale(2)" fill="rgba(232, 232, 232, 1)"></use><use xlink:href="#SvgjsG1199" transform="translate(384, 192) scale(2)" fill="rgba(232, 232, 232, 1)"></use><use xlink:href="#SvgjsG1197" transform="translate(384, 240) scale(2)" fill="rgba(232, 232, 232, 1)"></use><use xlink:href="#SvgjsG1199" transform="translate(384, 288) scale(2)" fill="rgba(232, 232, 232, 1)"></use><use xlink:href="#SvgjsG1195" transform="translate(384, 336) scale(2)" fill="rgba(232, 232, 232, 1)"></use><use xlink:href="#SvgjsG1200" transform="translate(384, 384) scale(2)" fill="rgba(232, 232, 232, 1)"></use><use xlink:href="#SvgjsG1199" transform="translate(384, 432) scale(2)" fill="rgba(232, 232, 232, 1)"></use><use xlink:href="#SvgjsG1201" transform="translate(432, 0) scale(2)" fill="rgba(232, 232, 232, 1)"></use><use xlink:href="#SvgjsG1202" transform="translate(432, 48) scale(2)" fill="rgba(232, 232, 232, 1)"></use><use xlink:href="#SvgjsG1198" transform="translate(432, 96) scale(2)" fill="rgba(232, 232, 232, 1)"></use><use xlink:href="#SvgjsG1195" transform="translate(432, 144) scale(2)" fill="rgba(232, 232, 232, 1)"></use><use xlink:href="#SvgjsG1202" transform="translate(432, 192) scale(2)" fill="rgba(232, 232, 232, 1)"></use><use xlink:href="#SvgjsG1196" transform="translate(432, 240) scale(2)" fill="rgba(232, 232, 232, 1)"></use><use xlink:href="#SvgjsG1201" transform="translate(432, 288) scale(2)" fill="rgba(232, 232, 232, 1)"></use><use xlink:href="#SvgjsG1201" transform="translate(432, 336) scale(2)" fill="rgba(232, 232, 232, 1)"></use><use xlink:href="#SvgjsG1197" transform="translate(432, 384) scale(2)" fill="rgba(232, 232, 232, 1)"></use><use xlink:href="#SvgjsG1198" transform="translate(432, 432) scale(2)" fill="rgba(232, 232, 232, 1)"></use></g></defs></svg>